<?xml version="1.0" encoding="iso-8859-1"?>
<!-- Generator: Adobe Illustrator 19.0.0, SVG Export Plug-In . SVG Version: 6.00 Build 0)  -->
<svg version="1.1" id="Capa_1" xmlns="http://www.w3.org/2000/svg" xmlns:xlink="http://www.w3.org/1999/xlink" x="0px" y="0px"
	 viewBox="0 0 469.339 469.339" style="enable-background:new 0 0 469.339 469.339;" xml:space="preserve">
<path style="fill:#303C42;" d="M469.039,158.528C466.01,68.732,429.806,0,384.003,0H85.336C37.481,0,0.003,74.97,0.003,170.667
	s37.478,170.667,85.333,170.667v117.333c0,3.979,2.208,7.635,5.749,9.468c3.522,1.824,7.793,1.542,11.063-0.738l24.188-17.022
	l24.166,17.011c3.708,2.605,8.583,2.605,12.292,0l24.145-17.001l24.062,16.99c3.667,2.605,8.625,2.615,12.292,0.011l24.105-17.001
	l24.062,16.99c3.667,2.605,8.625,2.605,12.292,0l24.041-16.979l24.083,16.99c3.667,2.605,8.606,2.573,12.314-0.011l23.957-16.969
	l23.959,16.969c3.686,2.583,8.625,2.605,12.312,0l24.064-16.979l24.04,16.979c1.835,1.301,3.979,1.958,6.146,1.958
	c1.687,0,3.353-0.397,4.896-1.199c3.541-1.833,5.771-5.478,5.771-9.468V160C469.336,159.477,469.112,159.031,469.039,158.528z"/>
<path style="fill:#E4E5E6;" d="M448.003,170.667c0,88-33.73,149.333-64,149.333c-30.27,0-64-61.333-64-149.333
	s33.73-149.333,64-149.333C414.273,21.333,448.003,82.667,448.003,170.667z"/>
<path style="opacity:0.1;enable-background:new    ;" d="M448.003,170.667c0,88-33.73,149.333-64,149.333
	c-30.27,0-64-61.333-64-149.333s33.73-149.333,64-149.333C414.273,21.333,448.003,82.667,448.003,170.667z"/>
<g>
	<path style="fill:#F2F2F2;" d="M21.336,170.667c0-88,33.73-149.333,64-149.333h256.819C316.022,50.187,298.67,105.6,298.67,170.667
		S316.022,291.147,342.155,320H85.336C55.066,320,21.336,258.667,21.336,170.667z"/>
	<path style="fill:#F2F2F2;" d="M448.003,438.063l-13.376-9.438c-3.665-2.605-8.623-2.605-12.29,0l-24.064,16.979l-23.957-16.979
		c-3.708-2.605-8.625-2.605-12.333,0l-23.979,16.979l-24.064-16.99c-3.667-2.605-8.625-2.594-12.292,0.011l-24.041,16.979
		l-24.062-16.979c-3.667-2.605-8.625-2.615-12.292-0.011l-24.105,17.001l-24.062-16.99c-3.667-2.605-8.585-2.615-12.292-0.011
		l-24.145,17.011l-24.166-17.011c-3.71-2.605-8.585-2.594-12.293-0.011l-13.521,9.521v-96.791h277.333
		c25.779,0,48.48-21.884,64-56.917V438.063z"/>
</g>
<path style="opacity:0.2;fill:#FFFFFF;enable-background:new    ;" d="M117.336,42.667h209.962
	c4.566-8.059,9.469-15.384,14.857-21.333H85.336c-30.27,0-64,61.333-64,149.333c0,64.526,18.151,114.594,39.759,136.779
	C49.674,279.366,42.67,242.844,42.67,202.667C42.67,114.299,76.099,42.667,117.336,42.667z"/>
<path style="fill:#303C42;" d="M362.67,170.667c0,42.468,7.187,64,21.333,64c14.146,0,21.333-21.532,21.333-64s-7.187-64-21.333-64
	C369.857,106.667,362.67,128.198,362.67,170.667z"/>
<path style="opacity:0.1;enable-background:new    ;" d="M85.336,320h256.819c-5.388-5.949-10.29-13.275-14.857-21.333h-273.5
	C63.672,312.297,74.705,320,85.336,320z"/>
<linearGradient id="SVGID_1_" gradientUnits="userSpaceOnUse" x1="-57.3665" y1="612.8211" x2="-47.0994" y2="602.554" gradientTransform="matrix(21.3333 0 0 -21.3333 1430.0515 13315.2881)">
	<stop  offset="0" style="stop-color:#000000;stop-opacity:0.1"/>
	<stop  offset="1" style="stop-color:#000000;stop-opacity:0"/>
</linearGradient>
<path style="fill:url(#SVGID_1_);" d="M217.149,445.615l24.104-17c3.667-2.605,8.625-2.595,12.292,0.01l24.063,16.979l24.04-16.979
	c3.667-2.605,8.625-2.616,12.292-0.01l24.065,16.99l23.978-16.979c3.708-2.605,8.625-2.605,12.333,0l23.957,16.979l24.064-16.979
	c3.668-2.605,8.625-2.605,12.29,0l13.376,9.438V284.415c-15.521,35.034-38.221,56.918-64,56.918H106.67l89.393,89.393
	L217.149,445.615z"/>
<linearGradient id="SVGID_2_" gradientUnits="userSpaceOnUse" x1="-67.3676" y1="618.6413" x2="-42.8563" y2="607.2136" gradientTransform="matrix(21.3333 0 0 -21.3333 1430.0515 13315.2881)">
	<stop  offset="0" style="stop-color:#FFFFFF;stop-opacity:0.2"/>
	<stop  offset="1" style="stop-color:#FFFFFF;stop-opacity:0"/>
</linearGradient>
<path style="fill:url(#SVGID_2_);" d="M469.039,158.528C466.01,68.732,429.806,0,384.003,0H85.336
	C37.481,0,0.003,74.97,0.003,170.667s37.478,170.667,85.333,170.667v117.333c0,3.979,2.208,7.635,5.749,9.468
	c3.522,1.824,7.793,1.542,11.063-0.738l24.188-17.022l24.166,17.011c3.708,2.605,8.583,2.605,12.292,0l24.145-17.001l24.062,16.99
	c3.667,2.605,8.625,2.615,12.292,0.011l24.105-17.001l24.062,16.99c3.667,2.605,8.625,2.605,12.292,0l24.041-16.979l24.083,16.99
	c3.667,2.605,8.606,2.573,12.314-0.011l23.957-16.969l23.959,16.969c3.686,2.583,8.625,2.605,12.312,0l24.064-16.979l24.04,16.979
	c1.835,1.301,3.979,1.958,6.146,1.958c1.687,0,3.353-0.397,4.896-1.199c3.541-1.833,5.771-5.478,5.771-9.468V160
	C469.336,159.477,469.112,159.031,469.039,158.528z"/>
<g>
</g>
<g>
</g>
<g>
</g>
<g>
</g>
<g>
</g>
<g>
</g>
<g>
</g>
<g>
</g>
<g>
</g>
<g>
</g>
<g>
</g>
<g>
</g>
<g>
</g>
<g>
</g>
<g>
</g>
</svg>
